<svg id="a72b56c4-bfa8-43f6-b7bf-18b04e5dc5dc" xmlns="http://www.w3.org/2000/svg" viewBox="0 0 880.67 624.28"><defs><style>.cls-1{fill:#ff8600;}.cls-2{fill:#3f3d56;}.cls-3{fill:#fff;}.cls-4{fill:#ff6584;}.cls-5{fill:#e6e6e6;}.cls-6{fill:#2f2e41;}.cls-7{fill:#ccc;}</style></defs><title>休闲</title><path class="cls-1" d="M351.25,411.59a16.68,16.68,0,0,1-4.81-.72L11.69,308.7a16.52,16.52,0,0,1-11-20.6L85.08,11.69a16.52,16.52,0,0,1,20.6-11L440.44,102.89a16.51,16.51,0,0,1,11,20.6L367,399.9A16.54,16.54,0,0,1,351.25,411.59Z" transform="translate(0 0)"/><path class="cls-2" d="M401.1,367.28H51.1a17,17,0,0,1-17-17v-289a17,17,0,0,1,17-17h350a17,17,0,0,1,17,17v289A17,17,0,0,1,401.1,367.28Zm-350-321a15,15,0,0,0-15,15v289a15,15,0,0,0,15,15h350a15,15,0,0,0,15-15v-289a15,15,0,0,0-15-15Z" transform="translate(0 0)"/><path class="cls-3" d="M226.1,333.28a1,1,0,0,1-1-1v-195a1,1,0,0,1,2,0v195A1,1,0,0,1,226.1,333.28Z" transform="translate(0 0)"/><path class="cls-3" d="M226.1,286.59a1,1,0,0,1-.44-1.9l106-51.31a1,1,0,0,1,.88,1.8h0l-106,51.31A1.13,1.13,0,0,1,226.1,286.59Z" transform="translate(0 0)"/><path class="cls-3" d="M226.1,235.28a1,1,0,0,1-1-1,1,1,0,0,1,.53-.88l71-38a1,1,0,0,1,.94,1.76l-71,38A.94.94,0,0,1,226.1,235.28Z" transform="translate(0 0)"/><path class="cls-3" d="M226.1,178.3a1,1,0,0,1-.48-1.87l42-23a1,1,0,0,1,1,1.76h0l-42,23A1,1,0,0,1,226.1,178.3Z" transform="translate(0 0)"/><path class="cls-3" d="M226.1,286.59a1.13,1.13,0,0,1-.44-.1l-106-51.31a1,1,0,0,1,.88-1.8l106,51.31a1,1,0,0,1-.44,1.9Z" transform="translate(0 0)"/><path class="cls-3" d="M226.1,235.28a1,1,0,0,1-.47-.12l-71-38a1,1,0,0,1,.94-1.76l71,38a1,1,0,0,1,.41,1.35A1,1,0,0,1,226.1,235.28Z" transform="translate(0 0)"/><path class="cls-3" d="M226.1,178.3a1,1,0,0,1-.48-.12l-42-23a1,1,0,1,1,1-1.76l42,23a1,1,0,0,1-.48,1.87Z" transform="translate(0 0)"/><path class="cls-2" d="M243.1,366.78h-34a6.5,6.5,0,0,1-6.5-6.5v-22a6.51,6.51,0,0,1,6.5-6.5h34a6.51,6.51,0,0,1,6.5,6.5v22A6.5,6.5,0,0,1,243.1,366.78Z" transform="translate(0 0)"/><circle class="cls-4" cx="35.59" cy="103.86" r="14.63"/><path class="cls-2" d="M432.13,50.21c0,.57,0,1.12-.06,1.66a22.76,22.76,0,1,1-42.83-12.28,20.18,20.18,0,0,1,1.68-2.69,22.75,22.75,0,0,1,41.13,11.46C432.11,49,432.13,49.59,432.13,50.21Z" transform="translate(0 0)"/><circle class="cls-5" cx="347.85" cy="365.87" r="14.63"/><circle class="cls-5" cx="235.85" cy="44.87" r="14.63"/><path class="cls-5" d="M812.1,623.28a1,1,0,0,1-1-1v-18a1,1,0,0,1,2,0v18A1,1,0,0,1,812.1,623.28Z" transform="translate(0 0)"/><circle class="cls-5" cx="812.1" cy="594.28" r="5"/><path class="cls-5" d="M811.1,615.28s6.25-11.25,15-7.5" transform="translate(0 0)"/><path class="cls-5" d="M542.1,623.28a1,1,0,0,1-1-1v-18a1,1,0,0,1,2,0v18A1,1,0,0,1,542.1,623.28Z" transform="translate(0 0)"/><circle class="cls-5" cx="542.1" cy="594.28" r="5"/><path class="cls-5" d="M541.1,615.28s6.25-11.25,15-7.5" transform="translate(0 0)"/><path class="cls-5" d="M591.1,623.28a1,1,0,0,1-1-1v-18a1,1,0,0,1,2,0v18A1,1,0,0,1,591.1,623.28Z" transform="translate(0 0)"/><circle class="cls-5" cx="591.1" cy="594.28" r="5"/><path class="cls-5" d="M590.1,615.28s6.25-11.25,15-7.5" transform="translate(0 0)"/><path class="cls-1" d="M622.4,547.08a4,4,0,0,1,.23-.34,6.88,6.88,0,0,1,.76-1.35l25.16-35.2,20.73-29h35.36l-2.5,3.49-4.45,6.23L683.9,510.2l-29.55,41.33,27.39,55c1.12,2.24-.79,5.46-4.24,7.18l-13.21,6.58a9.73,9.73,0,0,1-4.23,1.06c-1.86,0-3.41-.69-4.06-2L622,551A3.94,3.94,0,0,1,622.4,547.08Z" transform="translate(0 0)"/><path class="cls-1" d="M697.17,616.22v-125a2,2,0,0,1,0-.35,7.45,7.45,0,0,1,4.76-6.64,7.26,7.26,0,0,1,2.72-.51h14.76a7.51,7.51,0,0,1,7.5,7.5v125a7.52,7.52,0,0,1-7.5,7.5H704.67A7.51,7.51,0,0,1,697.17,616.22Z" transform="translate(0 0)"/><path class="cls-1" d="M679.32,392.61,614.61,497.23a7.53,7.53,0,0,1-10.33,2.43l-12.55-7.76a7.52,7.52,0,0,1-2.43-10.32L654,377a7.2,7.2,0,0,1,1.16-1.43,7.48,7.48,0,0,1,9.16-1l12.56,7.77a7.45,7.45,0,0,1,3.35,4.66,7.86,7.86,0,0,1,.18,2.32A7.64,7.64,0,0,1,679.32,392.61Z" transform="translate(0 0)"/><path class="cls-6" d="M682.71,390.74l-25.06,51.37a7.5,7.5,0,0,1-10.28,2.55l-24-14a7.5,7.5,0,0,1-2.5-10.36l32.75-45.59a2.09,2.09,0,0,1,.4-.49c1.19-1.13,3.87-1.53,6-1.86l.33-.05c.58-.09,1.08-.16,1.43-.25l.13,0a4,4,0,0,1,.43-.08,7.43,7.43,0,0,1,5.09,1l12.64,7.63a7.59,7.59,0,0,1,3.61,7A7.23,7.23,0,0,1,682.71,390.74Z" transform="translate(0 0)"/><circle class="cls-1" cx="691.23" cy="277.37" r="53.52"/><path class="cls-6" d="M694.36,306.21l.06-2c-3.72-.1-7-.34-9.47-2.14a6.16,6.16,0,0,1-2.38-4.53,3.51,3.51,0,0,1,1.15-2.89c1.64-1.38,4.27-.94,6.19-.06l1.66.76-3.18-23.19-2,.27,2.7,19.73c-2.61-.77-5-.44-6.68,1a5.49,5.49,0,0,0-1.86,4.49,8.16,8.16,0,0,0,3.2,6.08C686.94,306,691.05,306.12,694.36,306.21Z" transform="translate(0 0)"/><rect class="cls-6" x="665.84" y="274.13" width="10.77" height="2"/><rect class="cls-6" x="699.84" y="274.13" width="10.77" height="2"/><path class="cls-6" d="M621.45,537.67c-3.53-.2-6.29-6-6.29-13.3l21-120.67a54.59,54.59,0,0,1,1.7-13.53h0c.42-1.59.91-3.17,1.46-4.69a53.83,53.83,0,0,1,17-23.88c.88-.72,1.8-1.41,2.73-2.06a53.63,53.63,0,0,1,14.81-7.34,9,9,0,0,1-.22-2,9.5,9.5,0,0,1,9.5-9.5h14a9.51,9.51,0,0,1,9.5,9.5,9.65,9.65,0,0,1-.22,2,54,54,0,0,1,37.72,51.5l20,120.67c0,7.47-2.86,13.33-6.5,13.33h-136A.76.76,0,0,1,621.45,537.67Z" transform="translate(0 0)"/><path class="cls-1" d="M704.29,519.22a7.47,7.47,0,0,1-1-3.57l-2.1-123a7.48,7.48,0,0,1,2.1-5.34h0a7.49,7.49,0,0,1,5.26-2.29l14.76-.25a7.5,7.5,0,0,1,7.58,6.62,6.27,6.27,0,0,1,.05.74l2.11,123a7.51,7.51,0,0,1-7.37,7.62l-14.76.26a7.54,7.54,0,0,1-6.65-3.8Z" transform="translate(0 0)"/><path class="cls-6" d="M698.09,434.76a7.55,7.55,0,0,1-1-3.21l.64-57a7.51,7.51,0,0,1,6.89-8.07l14.71-1.15a7.57,7.57,0,0,1,5,1.43c.15.11.3.25.45.35A11.86,11.86,0,0,0,726,368l.32.23c2.11,1.5,4.51,3.19,4.63,4.85l8.85,55.59a7.37,7.37,0,0,1-1.1,4.53,7,7,0,0,1-.67.94,7.08,7.08,0,0,1-.73.72,7.46,7.46,0,0,1-4.4,1.89l-27.69,1.78a7.49,7.49,0,0,1-7.1-3.76Z" transform="translate(0 0)"/><path class="cls-6" d="M716.8,256.72A17.94,17.94,0,0,0,688,248.91c-5,4-8.78,10.07-15.28,11.78-5.57,1.46-11.66-.37-16.12-3.83-10.84-8.42-9-24.4-1-34.11,9.35-11.26,25.26-14.52,39.23-13.59,14.57,1,28.61,6.66,40.37,15.21s21.23,20.39,28,33.37a119.65,119.65,0,0,1,8.34,20.67,100.05,100.05,0,0,1,4.5,23.06c.43,7.63-.62,15.48-4.7,22.08-3.37,5.44-8.65,9.88-15,11.09a17.2,17.2,0,0,1-15.85-5.88,12.56,12.56,0,0,1,.34-16.77,12.82,12.82,0,0,1,18.13-.5,1.37,1.37,0,0,1,.17.17c2.28,2.35,3.65,5.86,2.61,9.1-.87,2.72-3.59,5.22-6.59,4.94-2.84-.27-5.41-3.2-4.73-6.08.44-1.88-2.45-2.68-2.89-.8a8.11,8.11,0,0,0,4,8.72,8.39,8.39,0,0,0,9.48-.75c6.32-4.86,4.64-14-1.13-18.52a15.9,15.9,0,0,0-20.75,1.2,15.59,15.59,0,0,0-2.48,19,20.32,20.32,0,0,0,16.42,9.41c7,.23,13.7-3.7,18.14-8.95,11.22-13.29,8.56-32,4.39-47.54a116.61,116.61,0,0,0-21.36-43,88.66,88.66,0,0,0-38.18-27.7c-14.59-5.36-31.65-6.76-46.37-1.08-7.14,2.76-13.63,7.22-18,13.57a30.52,30.52,0,0,0-5.45,20.54,22.92,22.92,0,0,0,10.12,16.57c5.23,3.49,12.11,5,18.19,3,7.22-2.36,11-9.2,17-13.27a15.07,15.07,0,0,1,17.34.58,14,14,0,0,1,5.15,6.89c.6,1.83,3.5,1.05,2.89-.79Z" transform="translate(0 0)"/><path class="cls-6" d="M748.33,441.77c5.35,0,11,.18,15.95,2.54,3.92,1.87,7.55,5.15,8.34,9.61.72,4-1.07,8.68-5.19,10-4.65,1.47-9.36-1.24-11.9-5.08-3.41-5.18-3.65-11.56-3.86-17.56-.07-1.93-3.07-1.94-3,0,.23,6.34.55,13,4,18.58,3,4.84,8.28,8.2,14.11,7.29,5.34-.83,8.69-5.52,9-10.71.33-5.41-2.87-10.13-7.18-13.1-5.89-4.07-13.31-4.51-20.24-4.55a1.5,1.5,0,0,0,0,3Z" transform="translate(0 0)"/><path class="cls-6" d="M749.09,441.56c5.11-3.21,10.28-6.77,13.51-12,2.93-4.76,4.07-10.9,1.4-16-2.36-4.53-7.44-7.57-12.58-6.32-5.45,1.33-8.93,6.46-9.6,11.81-.91,7.34,2.74,14.06,6.26,20.2a1.5,1.5,0,0,0,2.59-1.51c-2.67-4.66-5.55-9.59-5.94-15.07-.35-4.74,1.32-9.74,5.83-11.95,3.93-1.93,8.23.05,10.41,3.6,2.54,4.11,1.66,9.21-.65,13.23-2.91,5.06-7.91,8.42-12.75,11.46-1.63,1-.12,3.63,1.52,2.59Z" transform="translate(0 0)"/><path class="cls-7" d="M879.67,624.28h-381a1,1,0,0,1,0-2h381a1,1,0,0,1,0,2Z" transform="translate(0 0)"/></svg>