<?xml version="1.0" encoding="iso-8859-1"?>
<!-- Generator: Adobe Illustrator 23.0.2, SVG Export Plug-In . SVG Version: 6.00 Build 0)  -->
<svg version="1.1" id="&#x56FE;&#x5C42;_1" xmlns="http://www.w3.org/2000/svg" xmlns:xlink="http://www.w3.org/1999/xlink" x="0px"
	 y="0px" viewBox="0 0 1000 1000" style="enable-background:new 0 0 1000 1000;" xml:space="preserve">
<g id="&#x573A;&#x666F;1">
	<g>
		<defs>
			<path id="XMLID_17_" d="M781.586,193.62c182.964,16.663,137.405,331.546,46.152,421.374c-46.704,45.975-466.479,52.848-573.497,0
				c0,0-162.684,15.254-153.331-244.259c0,0,4.456-28.442,4.464-28.471c24.123-88.402,119.558-136.384,204.908-103.035
				c21.698,8.478,43.936,16.689,65.321,23.82C473.519,295.701,663.932,182.905,781.586,193.62z"/>
		</defs>
		<use xlink:href="#XMLID_17_"  style="overflow:visible;fill:#FFEBE5;"/>
		<clipPath id="XMLID_2_">
			<use xlink:href="#XMLID_17_"  style="overflow:visible;"/>
		</clipPath>
		<path style="clip-path:url(#XMLID_2_);fill:#FFFFFF;" d="M44.869,525.39l-1.969-0.354c0.143-0.798,14.922-80.697,67.977-158.489
			c31.175-45.712,69.271-81.775,113.23-107.188c54.948-31.767,119.236-46.866,191.104-44.917l-0.055,2
			c-161.838-4.436-253.872,79.771-302.587,151.174C59.733,445.058,45.011,524.595,44.869,525.39z"/>
		<path style="clip-path:url(#XMLID_2_);fill:#FFFFFF;" d="M141.416,691.073c-0.108-0.349-10.855-35.351-15.39-77.586
			c-4.195-39.078-3.775-92.533,22.048-125.273c17.713-22.456,45.127-32.631,81.491-30.256
			c101.882,6.671,198.989-58.737,250.027-126.519c31.476-41.802,44.396-83.076,34.563-110.408l1.882-0.678
			c10.063,27.97-2.964,69.946-34.847,112.289c-48.925,64.977-139.964,127.782-237.198,127.785c-4.841,0-9.69-0.155-14.557-0.474
			c-35.664-2.338-62.508,7.589-79.789,29.497c-25.401,32.202-25.786,85.091-21.635,123.788c4.51,42.049,15.208,76.896,15.315,77.242
			L141.416,691.073z"/>
		<path style="clip-path:url(#XMLID_2_);fill:#FFFFFF;" d="M358.232,779.295c-0.112-0.197-11.301-20.026-19.556-49.598
			c-7.623-27.307-14.244-68.768-2.5-111.214c13.214-47.757,46.477-86.95,98.867-116.491
			c83.383-47.017,94.749-81.615,103.048-106.878c4.647-14.147,8.662-26.367,23.865-36.31c16.19-10.589,44.04-18.088,90.298-24.315
			c66.487-8.95,130.797-27.176,181.083-51.317c50.626-24.306,81.381-51.963,86.6-77.879c4.146-20.589-7.729-39.242-35.297-55.441
			l1.014-1.725c28.383,16.679,40.577,36.045,36.244,57.562c-5.346,26.545-36.49,54.702-87.695,79.286
			c-50.47,24.23-114.993,42.52-181.683,51.497c-97.366,13.107-103.074,30.482-112.53,59.267
			c-8.401,25.574-19.907,60.599-103.965,107.996c-51.909,29.271-84.855,68.057-97.921,115.282
			c-22.248,80.411,21.423,158.509,21.867,159.288L358.232,779.295z"/>
		<path style="clip-path:url(#XMLID_2_);fill:#FFFFFF;" d="M673.299,246.825c-4.964,0-9.797-0.532-14.511-1.6
			c-46.746-10.588-63.843-71.485-64.011-72.1l1.93-0.525c0.164,0.603,16.958,60.361,62.532,70.677
			c38.34,8.676,85.51-19.082,140.19-82.512l1.515,1.307C752.39,218.395,709.536,246.825,673.299,246.825z"/>
		<path style="clip-path:url(#XMLID_2_);fill:#FFFFFF;" d="M470.971,770.96l-1.986-0.236c0.066-0.555,6.905-56.222,32.139-125.349
			c14.822-40.604,33-77.852,54.027-110.706c26.297-41.089,57.153-75.386,91.709-101.936c76.244-58.581,170.999-80.28,281.629-64.487
			l-0.282,1.98c-110.076-15.714-204.319,5.851-280.119,64.085c-77.851,59.812-121.858,148.135-145.067,211.697
			C477.856,714.929,471.037,770.408,470.971,770.96z"/>
		<path style="clip-path:url(#XMLID_2_);fill:#FFFFFF;" d="M567.189,716.334c-0.881-14.612,23.896-67.432,54.104-115.341
			c38.555-61.148,77.056-101.852,105.629-111.674c17.526-6.025,31.813-1.222,42.463,14.278
			c29.327,42.683,82.524,44.706,121.987,38.894c42.942-6.328,79.391-23.048,79.753-23.216l0.841,1.814
			c-0.366,0.169-37.04,16.997-80.26,23.374c-25.431,3.751-48.133,3.208-67.476-1.613c-24.263-6.049-43.27-18.874-56.494-38.12
			c-10.079-14.668-23.592-19.216-40.165-13.521c-28.15,9.677-66.271,50.08-104.587,110.85
			c-33.13,52.544-54.565,101.446-53.8,114.153L567.189,716.334z"/>
	</g>
	<circle style="fill:none;stroke:#FA6464;stroke-width:2;stroke-miterlimit:10;" cx="407.8" cy="591.798" r="48.699"/>
	<circle style="fill:#5A78EC;" cx="407.8" cy="591.798" r="27.734"/>
	<polygon style="fill:#26205C;" points="934.929,683.822 89.959,683.822 177.122,591.024 847.766,591.024 	"/>
	<path style="fill:#A1788F;" d="M460.736,458.956H153.532c-3.165,0-5.755-2.59-5.755-5.755V244.983c0-3.165,2.59-5.755,5.755-5.755
		h307.204c3.165,0,5.755,2.59,5.755,5.755v208.218C466.491,456.366,463.901,458.956,460.736,458.956z"/>
	<g id="&#x6570;&#x636E;&#x677F;">
		<path style="fill:#231D5A;" d="M468.336,243.278H132.547c-0.903,0-1.642-0.739-1.642-1.642v-4.922
			c0-0.903,0.739-1.642,1.642-1.642h335.789c0.903,0,1.642,0.739,1.642,1.642v4.922
			C469.978,242.539,469.239,243.278,468.336,243.278z"/>
		<path style="fill:#FFFFFF;" d="M454.894,243.278H146.539c-2.293,0-4.168,1.876-4.168,4.168v200.926
			c0,2.293,1.876,4.168,4.168,4.168h308.355c2.293,0,4.168-1.876,4.168-4.168V247.446
			C459.063,245.153,457.187,243.278,454.894,243.278z"/>
		<path style="fill:#5A78EC;" d="M299.131,273.492H161.87c-0.721,0-1.311-0.59-1.311-1.311v-7.823c0-0.721,0.59-1.311,1.311-1.311
			h137.26c0.721,0,1.311,0.59,1.311,1.311v7.823C300.441,272.902,299.852,273.492,299.131,273.492z"/>
		<path style="fill:#5A78EC;" d="M272.274,372.715H161.87c-0.721,0-1.311-0.59-1.311-1.311v-7.823c0-0.721,0.59-1.311,1.311-1.311
			h110.403c0.721,0,1.311,0.59,1.311,1.311v7.823C273.584,372.125,272.994,372.715,272.274,372.715z"/>
		<path style="fill:#5A78EC;" d="M405.068,297.365H161.87c-0.721,0-1.311-0.59-1.311-1.311v-7.823c0-0.721,0.59-1.311,1.311-1.311
			h243.197c0.721,0,1.311,0.59,1.311,1.311v7.823C406.378,296.775,405.789,297.365,405.068,297.365z"/>
		<path style="fill:#FA6464;" d="M178.697,327.02h-17.063c-0.591,0-1.074-0.483-1.074-1.074v-17.063
			c0-0.591,0.483-1.074,1.074-1.074h17.063c0.591,0,1.074,0.483,1.074,1.074v17.063C179.77,326.537,179.287,327.02,178.697,327.02z"
			/>
		<path style="fill:#5A78EB;" d="M178.697,354.25h-17.063c-0.591,0-1.074-0.483-1.074-1.074v-17.063
			c0-0.591,0.483-1.074,1.074-1.074h17.063c0.591,0,1.074,0.483,1.074,1.074v17.063C179.77,353.767,179.287,354.25,178.697,354.25z"
			/>
		<path style="fill:#FDD740;" d="M173.288,411.135h-11.654c-0.591,0-1.074-0.483-1.074-1.074v-11.654
			c0-0.591,0.483-1.074,1.074-1.074h11.654c0.591,0,1.074,0.483,1.074,1.074v11.654
			C174.362,410.652,173.878,411.135,173.288,411.135z"/>
		<path style="fill:#232323;" d="M229.238,428.607h-71.849c-0.276,0-0.5-0.224-0.5-0.5s0.224-0.5,0.5-0.5h71.391l34.317-39.726
			h112.507c0.276,0,0.5,0.224,0.5,0.5s-0.224,0.5-0.5,0.5H263.555L229.238,428.607z"/>
		<path style="fill:#232323;" d="M375.604,397.088H266.497c-0.276,0-0.5-0.224-0.5-0.5s0.224-0.5,0.5-0.5h109.107
			c0.276,0,0.5,0.224,0.5,0.5S375.881,397.088,375.604,397.088z"/>
		<path style="fill:#232323;" d="M353.596,404.921h-87.099c-0.276,0-0.5-0.224-0.5-0.5s0.224-0.5,0.5-0.5h87.099
			c0.276,0,0.5,0.224,0.5,0.5S353.873,404.921,353.596,404.921z"/>
		<path style="fill:#232323;" d="M285.334,414.246h-18.837c-0.276,0-0.5-0.224-0.5-0.5s0.224-0.5,0.5-0.5h18.837
			c0.276,0,0.5,0.224,0.5,0.5S285.61,414.246,285.334,414.246z"/>
		<path style="fill:#232323;" d="M328.231,414.246h-37.674c-0.276,0-0.5-0.224-0.5-0.5s0.224-0.5,0.5-0.5h37.674
			c0.276,0,0.5,0.224,0.5,0.5S328.507,414.246,328.231,414.246z"/>
		<path style="fill:#232323;" d="M368.517,414.246h-35.81c-0.276,0-0.5-0.224-0.5-0.5s0.224-0.5,0.5-0.5h35.81
			c0.276,0,0.5,0.224,0.5,0.5S368.793,414.246,368.517,414.246z"/>
		<g>
			<circle style="fill:#FDD740;stroke:#232323;stroke-miterlimit:10;" cx="353.415" cy="339.522" r="22.195"/>
			<path style="fill:#232323;" d="M353.416,358.102c-10.245,0-18.581-8.335-18.581-18.58c0-6.013,2.931-11.681,7.841-15.164
				c3.15-2.234,6.864-3.416,10.74-3.416c0.276,0,0.5,0.224,0.5,0.5s-0.224,0.5-0.5,0.5c-3.667,0-7.181,1.117-10.161,3.232
				c-4.646,3.295-7.419,8.659-7.419,14.348c0,9.693,7.887,17.58,17.581,17.58c4.249,0,8.35-1.535,11.547-4.323
				c0.207-0.183,0.523-0.162,0.706,0.049c0.182,0.208,0.16,0.523-0.048,0.705C362.24,356.479,357.906,358.102,353.416,358.102z"/>
			<path style="fill:none;stroke:#232323;stroke-width:2;stroke-linecap:round;stroke-miterlimit:10;" d="M345.438,349.335
				c2.287,1.994,5.277,3.201,8.548,3.201c7.188,0,13.014-5.827,13.014-13.014c0-4.385-2.169-8.264-5.492-10.622
				c-2.124-1.507-4.72-2.393-7.522-2.393"/>
		</g>
		<path style="fill:#232323;" d="M377.736,239.499l-83.635-52.822l-83.631,51.353l-1.047-1.705l84.162-51.678
			c0.326-0.199,0.736-0.195,1.058,0.007l84.162,53.154L377.736,239.499z"/>
		<circle style="fill:#231D5A;" cx="294.108" cy="185.499" r="8.121"/>
		<path style="fill:#232323;" d="M305.182,307.813h-76.779c-0.276,0-0.5-0.224-0.5-0.5s0.224-0.5,0.5-0.5h76.779
			c0.276,0,0.5,0.224,0.5,0.5S305.458,307.813,305.182,307.813z"/>
		<path style="fill:#232323;" d="M260.886,314.642h-32.484c-0.276,0-0.5-0.224-0.5-0.5s0.224-0.5,0.5-0.5h32.484
			c0.276,0,0.5,0.224,0.5,0.5S261.163,314.642,260.886,314.642z"/>
		<path style="fill:#232323;" d="M283.772,314.457h-14.765c-0.276,0-0.5-0.224-0.5-0.5s0.224-0.5,0.5-0.5h14.765
			c0.276,0,0.5,0.224,0.5,0.5S284.048,314.457,283.772,314.457z"/>
		<path style="fill:#232323;" d="M305.182,321.47h-76.779c-0.276,0-0.5-0.224-0.5-0.5s0.224-0.5,0.5-0.5h76.779
			c0.276,0,0.5,0.224,0.5,0.5S305.458,321.47,305.182,321.47z"/>
		<path style="fill:#232323;" d="M280.081,328.299h-51.679c-0.276,0-0.5-0.224-0.5-0.5s0.224-0.5,0.5-0.5h51.679
			c0.276,0,0.5,0.224,0.5,0.5S280.357,328.299,280.081,328.299z"/>
		<path style="fill:#232323;" d="M297.061,328.299h-11.813c-0.276,0-0.5-0.224-0.5-0.5s0.224-0.5,0.5-0.5h11.813
			c0.276,0,0.5,0.224,0.5,0.5S297.337,328.299,297.061,328.299z"/>
		<path style="fill:#232323;" d="M237.262,335.128h-8.859c-0.276,0-0.5-0.224-0.5-0.5s0.224-0.5,0.5-0.5h8.859
			c0.276,0,0.5,0.224,0.5,0.5S237.538,335.128,237.262,335.128z"/>
		<path style="fill:#232323;" d="M261.625,335.128h-17.719c-0.276,0-0.5-0.224-0.5-0.5s0.224-0.5,0.5-0.5h17.719
			c0.276,0,0.5,0.224,0.5,0.5S261.901,335.128,261.625,335.128z"/>
		<path style="fill:#232323;" d="M300.014,335.128h-33.96c-0.276,0-0.5-0.224-0.5-0.5s0.224-0.5,0.5-0.5h33.96
			c0.276,0,0.5,0.224,0.5,0.5S300.291,335.128,300.014,335.128z"/>
		<path style="fill:#FA6464;" d="M399.676,430.602h-13.281c-0.408,0-0.742-0.334-0.742-0.742v-30.999
			c0-0.408,0.334-0.742,0.742-0.742h13.281c0.408,0,0.742,0.334,0.742,0.742v30.999
			C400.418,430.268,400.084,430.602,399.676,430.602z"/>
		<path style="fill:#FA6464;" d="M421.824,430.602h-13.281c-0.408,0-0.742-0.334-0.742-0.742v-81.201
			c0-0.408,0.334-0.742,0.742-0.742h13.281c0.408,0,0.742,0.334,0.742,0.742v81.201
			C422.566,430.268,422.232,430.602,421.824,430.602z"/>
		<path style="fill:#FA6464;" d="M443.972,430.602H430.69c-0.408,0-0.742-0.334-0.742-0.742V307.316
			c0-0.408,0.334-0.742,0.742-0.742h13.281c0.408,0,0.742,0.334,0.742,0.742V429.86C444.714,430.268,444.38,430.602,443.972,430.602
			z"/>
	</g>
	<g>
		<g>
			<path style="fill:#FFB7B7;" d="M552.278,241.861c-12.345,0-22.352,9.479-22.352,21.171c0,0.689,0.038,1.369,0.105,2.041
				c-1.284,1.764-2.716,3.874-3.405,5.377c-0.921,2.006,2.426,1.508,5.333,1.402c3.532,7.288,11.299,12.352,20.32,12.352
				c12.345,0,22.352-9.479,22.352-21.171C574.63,251.339,564.623,241.861,552.278,241.861z"/>
			<path style="fill:#FFB7B7;" d="M426.395,301.104l-10.607-11.176c-0.98-1.033-2.674-1.118-3.765-0.19s-1.181,2.533-0.2,3.566
				l9.715,10.236c-0.055,0.045-0.115,0.083-0.169,0.13c-5.029,4.282-5.445,11.682-0.924,16.446l14.548,15.328
				c4.521,4.763,12.334,5.157,17.363,0.875c5.029-4.282,5.445-11.682,0.924-16.446l-14.548-15.328
				C435.545,301.188,430.725,300.012,426.395,301.104z"/>
			<path style="fill:#5A78EC;" d="M629.044,341.651c-4.417-15.261-9.55-25.841-13.863-32.864
				c-4.523-7.367-12.873-11.866-21.871-11.866h-78.469c-6.925,0-13.308,3.548-16.684,9.275l-16.12,27.34
				c0,0-1.596,2.167-3.713,5.692l-28.983-31.253c-0.897-0.967-2.467-1.064-3.488-0.214l-22.895,19.048
				c-0.987,0.821-1.089,2.254-0.222,3.189c6.531,7.043,31.986,34.493,49.376,53.253c0.657,0.891,1.402,1.749,2.243,2.57
				c0.383,0.373,0.76,0.728,1.134,1.074c0.632,0.682,1.254,1.353,1.854,2.001c2.579,2.783,5.938,4.539,9.504,5.272
				c5.608,1.83,9.759,0.278,12.528-1.775c1.021-0.55,1.998-1.205,2.913-1.967c0.554-0.461,1.057-0.956,1.536-1.466l2.75,18.38
				h103.086l-1.905-25.73C640.774,378.002,638.87,375.596,629.044,341.651z"/>
			<g>
				<path style="fill:#4C6AC8;" d="M496.601,393.901c-3.63,1.426,3.729-90.655,3.729-90.655l3.496,85.713
					C503.826,388.96,500.231,392.475,496.601,393.901z"/>
				<polyline style="fill:#4C6AC8;" points="550.12,359.316 593.216,353.778 590.431,326.82 597.715,356.42 550.12,359.316 				"/>
				<polyline style="fill:#4C6AC8;" points="550.981,384.314 550.55,386.171 608.095,386.171 607.757,381.61 600.969,382.757 
					550.981,384.314 				"/>
			</g>
			<polygon style="fill:#FFB000;" points="529.95,403.254 508.278,340.038 546.793,326.728 569.242,390.45 			"/>
			<path style="fill:#FFB7B7;" d="M550.12,363.114h-16.867l-5.023-5.525c-0.781-0.859-2.162-0.957-3.069-0.217
				c-0.907,0.74-1.01,2.048-0.229,2.907l2.577,2.835h-3.298c-5.406,0-9.829,4.189-9.829,9.31c0,5.12,4.423,9.309,9.829,9.309h26.339
				L550.12,363.114z"/>
			<path style="fill:#5A78EC;" d="M622.444,382.115l-77.915,1.948c-1.276,0.032-2.347-0.931-2.381-2.139l-0.634-22.757
				c-0.031-1.129,0.918-2.077,2.11-2.106l78.068-1.951c7.296-0.182,13.423,5.323,13.616,12.233l0.052,1.876
				C635.552,376.129,629.74,381.933,622.444,382.115z"/>
			<path style="fill:#232323;" d="M503.451,382.733c-0.534,0-0.978-0.422-0.999-0.96l-2.765-69.535
				c-0.022-0.552,0.407-1.018,0.959-1.039c0.551-0.032,1.017,0.408,1.039,0.959l2.765,69.535c0.022,0.552-0.407,1.018-0.959,1.039
				C503.478,382.733,503.464,382.733,503.451,382.733z"/>
			<path style="fill:#232323;" d="M543.785,358.057c-0.546,0-0.993-0.44-1-0.988c-0.006-0.552,0.436-1.005,0.988-1.012l52.672-0.622
				l-7.34-30.127c-0.131-0.536,0.198-1.077,0.735-1.208c0.538-0.132,1.078,0.198,1.208,0.735l7.935,32.57l-55.187,0.651
				C543.793,358.057,543.789,358.057,543.785,358.057z"/>
			<path style="fill:#232323;" d="M547.464,384.989c-0.541,0-0.986-0.432-0.999-0.975c-0.014-0.553,0.422-1.012,0.975-1.025
				l59.053-1.476c0.565,0.003,1.011,0.424,1.024,0.975c0.014,0.553-0.422,1.012-0.975,1.025l-59.053,1.476
				C547.481,384.989,547.473,384.989,547.464,384.989z"/>
		</g>
		<path style="fill:#26205C;" d="M573.061,270.92l-7.857-2.636c0,0,4.928-17.999-13.773-7.857c0,0,0.078-6.634-6.409-4.64
			c-6.486,1.993-8.001,5.86-11.867,3.873c0,0-11.766-12.304,0.996-18.124c12.762-5.82,20.054-10.547,30.419-3.134
			S581.854,254.908,573.061,270.92z"/>
	</g>
	<path style="fill:#26205C;" d="M571.883,268.524l-7.604-2.693c0,0,4.769-18.391-13.33-8.028c0,0,0.075-6.778-6.202-4.741
		s-7.743,5.987-11.484,3.957c0,0-11.387-12.572,0.964-18.519c12.351-5.947,19.408-10.776,29.438-3.202
		C573.696,242.873,580.393,252.164,571.883,268.524z"/>
	<g id="&#x6F14;&#x8BB2;&#x53F0;">
		<path style="fill:#232323;" d="M636.9,416.826c-0.552,0-1-0.447-1-1v-21.791c0.267-3.769-0.436-6.331-2.085-7.687
			c-2.168-1.781-5.337-0.944-5.368-0.937l-0.263,0.035h-26.149c-0.552,0-1-0.447-1-1s0.448-1,1-1h26.028
			c0.763-0.178,4.337-0.851,7.022,1.356c2.179,1.791,3.125,4.921,2.813,9.303l0.002,21.72
			C637.9,416.379,637.453,416.826,636.9,416.826z"/>
		<rect x="463.882" y="403.188" style="fill:#FDD740;" width="180.427" height="95.879"/>
		<rect x="463.882" y="415.826" style="fill:#26205C;" width="180.427" height="83.241"/>
		<rect x="478.264" y="441.103" style="fill:#FDD740;" width="149.92" height="217.907"/>
		<path style="fill:#232323;" d="M503.541,489.172c-0.552,0-1-0.447-1-1v-15.689c0-0.553,0.448-1,1-1s1,0.447,1,1v15.689
			C504.541,488.725,504.093,489.172,503.541,489.172z"/>
		<path style="fill:#232323;" d="M503.541,639.963c-0.552,0-1-0.447-1-1V495.145c0-0.553,0.448-1,1-1s1,0.447,1,1v143.818
			C504.541,639.516,504.093,639.963,503.541,639.963z"/>
		<path style="fill:#232323;" d="M528.818,639.963c-0.552,0-1-0.447-1-1v-166.48c0-0.553,0.448-1,1-1s1,0.447,1,1v166.48
			C529.818,639.516,529.371,639.963,528.818,639.963z"/>
		<path style="fill:#232323;" d="M554.096,500.066c-0.552,0-1-0.447-1-1v-26.584c0-0.553,0.448-1,1-1s1,0.447,1,1v26.584
			C555.096,499.619,554.648,500.066,554.096,500.066z"/>
		<path style="fill:#232323;" d="M554.096,639.963c-0.552,0-1-0.447-1-1V509.091c0-0.553,0.448-1,1-1s1,0.447,1,1v129.872
			C555.096,639.516,554.648,639.963,554.096,639.963z"/>
		<path style="fill:#232323;" d="M579.373,574.591c-0.552,0-1-0.447-1-1V472.482c0-0.553,0.448-1,1-1s1,0.447,1,1v101.108
			C580.373,574.144,579.925,574.591,579.373,574.591z"/>
		<path style="fill:#232323;" d="M579.373,639.963c-0.552,0-1-0.447-1-1v-47.939c0-0.553,0.448-1,1-1s1,0.447,1,1v47.939
			C580.373,639.516,579.925,639.963,579.373,639.963z"/>
		<path style="fill:#232323;" d="M604.65,622.53c-0.552,0-1-0.447-1-1V472.482c0-0.553,0.448-1,1-1s1,0.447,1,1V621.53
			C605.65,622.083,605.202,622.53,604.65,622.53z"/>
		<path style="fill:#232323;" d="M604.65,639.963c-0.552,0-1-0.447-1-1v-12.202c0-0.553,0.448-1,1-1s1,0.447,1,1v12.202
			C605.65,639.516,605.202,639.963,604.65,639.963z"/>
		<path style="fill:#FDD740;" d="M605.22,394.471h-22.058c-1.844,0-3.353-1.509-3.353-3.353v-12.471
			c0-1.844,1.509-3.353,3.353-3.353h22.058c1.844,0,3.353,1.509,3.353,3.353v12.471C608.572,392.963,607.064,394.471,605.22,394.471
			z"/>
	</g>
	<path style="fill:#5A78EC;" d="M360.144,558.643l-21.438,15.228c-1.954,1.388-4.688,0.925-6.076-1.029l-27.852-39.211
		c-1.388-1.954-0.925-4.688,1.029-6.076l21.438-15.228c1.954-1.388,4.688-0.925,6.076,1.029l27.852,39.211
		C362.561,554.521,362.098,557.255,360.144,558.643z"/>
	<circle style="fill:none;stroke:#FFFFFF;stroke-width:4;stroke-miterlimit:10;" cx="324.143" cy="530.989" r="6.773"/>
	<circle style="fill:none;stroke:#FFFFFF;stroke-width:4;stroke-miterlimit:10;" cx="341.829" cy="555.564" r="6.773"/>
	<path style="fill:#FFFFFF;" d="M340.857,543.235l-10.393,7.383c-1.409,1.001-3.381,0.667-4.382-0.742l-1.588-2.235
		c-1.001-1.409-0.667-3.381,0.742-4.382l10.393-7.383c1.409-1.001,3.381-0.667,4.382,0.742l1.588,2.235
		C342.6,540.263,342.266,542.234,340.857,543.235z"/>
	<circle style="fill:#5A78EC;" cx="306.979" cy="508.425" r="5.56"/>
	<path style="fill:#5A78EC;" d="M286.236,512.634c-0.419,0-0.844-0.089-1.25-0.274c-1.506-0.691-2.166-2.473-1.474-3.979
		c2.931-6.383,7.52-11.888,13.27-15.921s12.49-6.472,19.489-7.053c1.648-0.146,3.101,1.089,3.238,2.741
		c0.137,1.65-1.09,3.101-2.741,3.237c-5.941,0.494-11.661,2.563-16.541,5.986c-4.881,3.423-8.775,8.096-11.263,13.513
		C288.459,511.984,287.372,512.634,286.236,512.634z"/>
	<path style="fill:#5A78EC;" d="M272.487,505.025c-0.37,0-0.747-0.069-1.111-0.215c-1.539-0.614-2.288-2.359-1.674-3.898
		c3.568-8.938,9.715-16.438,17.778-21.69c8.065-5.253,17.41-7.839,27.025-7.497c1.656,0.06,2.949,1.451,2.889,3.106
		s-1.436,2.914-3.107,2.89c-8.359-0.296-16.509,1.954-23.532,6.528c-7.021,4.574-12.374,11.105-15.48,18.888
		C274.805,504.311,273.678,505.025,272.487,505.025z"/>
	<path style="fill:#5A78EC;" d="M256.593,503.74c-0.303,0-0.611-0.047-0.916-0.145c-1.578-0.505-2.447-2.194-1.941-3.771
		c4.539-14.166,13.979-26.319,26.582-34.223c12.603-7.902,27.656-11.107,42.383-9.024c1.641,0.232,2.783,1.75,2.55,3.391
		c-0.231,1.641-1.75,2.775-3.39,2.551c-13.33-1.889-26.951,1.015-38.355,8.167c-11.405,7.151-19.948,18.149-24.056,30.969
		C259.042,502.928,257.863,503.74,256.593,503.74z"/>
	<g style="display:none;">
		<defs>
			<path id="XMLID_12_" d="M688.629,276.98c168.454-73.327,219.65,16.423,182.657,138.846S775.028,642.45,661.214,750.963
				c-77.177,73.583-163.484,99.77-221.963,68.703c-28.186-14.974-27.745-51.527-134.763-104.375
				c0,0-276.132-141.699-149.957-339.995c0,0,7.851-14.182,23.513-31.4"/>
		</defs>
		<clipPath id="XMLID_3_" style="display:inline;">
			<use xlink:href="#XMLID_12_"  style="overflow:visible;"/>
		</clipPath>
		<path style="display:inline;clip-path:url(#XMLID_3_);fill:#456BFF;stroke:#232323;stroke-miterlimit:10;" d="M173.359,621.531
			c0,0,4.955-23.863,37.654-16.248c0,0-0.449-23.581,30.494-14.259c0,0,12.776,4.477,17.07,19.671
			c4.294,15.194,14.643-1.101,20.258-8.037s26.975-10.349,33.691,5.175c0,0,13.322-21.065,25.323-2.55
			c0,0,18.992-12.534,23.782,20.909c0,0,9.992,0.826,13.79,11.726c3.798,10.9,8.23,3.991,12.084,2.835
			c5.568-1.67,12.331,4.844,3.633,17.506s-72.116,95.017-72.116,95.017L173.359,621.531z"/>
		<path style="display:inline;clip-path:url(#XMLID_3_);fill:#456BFF;stroke:#232323;stroke-miterlimit:10;" d="M676.188,751.403
			c0,0-1.762-69.4,23.341-92.393c0,0-40.077-33.562,4.404-66.152s54.61,5.955,48.444,22.135c0,0,30.388-3.418,28.186,21.355
			L676.188,751.403z"/>
		<path style="display:inline;clip-path:url(#XMLID_3_);fill:#FFFFFF;stroke:#232323;stroke-miterlimit:10;" d="M267.935,713.969
			c0,0-3.964-36.113,16.735-21.139c0,0,0.11-28.186,17.616-23.451c17.506,4.734,12.882,29.177,13.763,35.232
			c0.881,6.056,15.854,18.772,22.956,5.395c7.101-13.377,4.459-30.883,19.157-32.535c0,0,3.964-28.571,27.58-15.029
			c0,0,23.451-13.873,36.003,12.056c0,0,6.771,12.221,7.597,21.965c0,0,13.212-4.294,19.488,7.597h7.267
			c0,0,14.369-34.021,45.995-3.633c0,0,14.78-10.9,21.056,4.955c0,0,14.203,0.33,1.652,11.891c0,0,7.778-1.982,7.597,7.267
			c0,0,1.358-22.461,20.827-13.873c0,0-7.615-35.342,16.827-37.324c0,0,25.103,1.982,18.167,23.451c0,0,12.221,6.276,7.597,14.864
			c0,0,9.579,0.991,10.239,4.624c0,0-0.991-9.909,8.588-10.57c0,0-2.312-39.966,36.003-33.03c0,0,5.945-23.121,36.664-10.9
			c0,0,34.556,13.643,4.066,72.882L560.362,852.696l-164.71-22.274L267.935,713.969z"/>
		
			<use xlink:href="#XMLID_12_"  style="display:inline;overflow:visible;fill:none;stroke:#232323;stroke-width:3;stroke-linecap:round;stroke-miterlimit:10;"/>
	</g>
	<circle style="fill:#5A78EC;" cx="742.088" cy="253.644" r="47.867"/>
	<path style="fill:#FFFFFF;" d="M742.087,255.645c-0.495,0-0.99-0.183-1.377-0.55c-0.801-0.761-0.833-2.027-0.072-2.828
		l26.474-27.861c0.76-0.799,2.027-0.833,2.827-0.072c0.801,0.761,0.833,2.027,0.072,2.828l-26.474,27.861
		C743.145,255.436,742.617,255.645,742.087,255.645z"/>
	<path style="fill:#FFFFFF;" d="M742.089,255.82c-0.168,0-0.339-0.021-0.51-0.066l-27.035-7.107
		c-1.068-0.281-1.707-1.375-1.426-2.443c0.281-1.067,1.373-1.708,2.442-1.426l27.035,7.107c1.068,0.281,1.707,1.375,1.426,2.443
		C743.786,255.226,742.976,255.82,742.089,255.82z"/>
	<path style="fill:#5A78EC;" d="M798.251,571.484l-93.57,0.267c-8.1,0.023-14.747-6.585-14.77-14.686l-0.181-63.229
		c-0.023-8.1,6.585-14.747,14.686-14.77l93.57-0.267c8.1-0.023,14.747,6.585,14.77,14.686l0.181,63.229
		C812.96,564.815,806.351,571.461,798.251,571.484z"/>
	<path style="opacity:0.64;fill:#5A78EB;" d="M875.493,500.026l-79.348,0.227c-8.1,0.023-14.747-6.585-14.77-14.686l-0.15-52.515
		c-0.023-8.1,6.585-14.747,14.686-14.77l79.348-0.227c8.1-0.023,14.747,6.585,14.77,14.686l0.15,52.515
		C890.202,493.357,883.594,500.003,875.493,500.026z"/>
	<circle style="fill:#FFFFFF;" cx="713.923" cy="499.895" r="5.767"/>
	<circle style="fill:#FFFFFF;" cx="749.066" cy="500.301" r="3.863"/>
	<path style="fill:#FFFFFF;" d="M727.059,525.665c-0.169,0-0.335-0.086-0.429-0.242l-9.932-16.481
		c-0.143-0.236-0.066-0.544,0.17-0.687c0.237-0.141,0.544-0.066,0.687,0.171l9.932,16.481c0.143,0.236,0.066,0.544-0.17,0.687
		C727.235,525.642,727.146,525.665,727.059,525.665z"/>
	<path style="fill:#FFFFFF;" d="M743.299,523.941c-0.055,0-0.111-0.009-0.166-0.028c-0.26-0.092-0.397-0.377-0.306-0.638
		l5.767-16.387c0.092-0.26,0.376-0.397,0.638-0.306c0.26,0.092,0.397,0.377,0.306,0.638l-5.767,16.387
		C743.699,523.813,743.505,523.941,743.299,523.941z"/>
	
		<circle style="fill:none;stroke:#FFFFFF;stroke-width:4;stroke-linecap:round;stroke-miterlimit:10;" cx="735.949" cy="537.307" r="12.094"/>
	<circle style="fill:none;stroke:#FA6464;stroke-width:2;stroke-miterlimit:10;" cx="610.326" cy="215.442" r="21.822"/>
	<circle style="opacity:0.64;fill:#5A78EB;" cx="652.388" cy="281.57" r="8.078"/>
	<path style="fill:none;stroke:#FA6464;stroke-width:2;stroke-miterlimit:10;" d="M856.001,307.81h-28.554
		c-3.865,0-7.028-3.162-7.028-7.028v0c0-3.865,3.162-7.028,7.028-7.028h28.554c3.865,0,7.028,3.162,7.028,7.028v0
		C863.028,304.647,859.866,307.81,856.001,307.81z"/>
	<rect x="89.959" y="683.822" style="fill:#26205C;" width="844.969" height="13.91"/>
	<path style="fill:none;stroke:#FA6464;stroke-width:2;stroke-miterlimit:10;" d="M225.144,523.441h-70.623
		c-1.792,0-3.258-1.466-3.258-3.258l0,0c0-1.792,1.466-3.258,3.258-3.258h70.623c1.792,0,3.258,1.466,3.258,3.258l0,0
		C228.402,521.975,226.936,523.441,225.144,523.441z"/>
	<path style="fill:none;stroke:#FA6464;stroke-width:2;stroke-miterlimit:10;" d="M241.674,543.247h-31.843
		c-1.634,0-2.97-1.336-2.97-2.97v0c0-1.633,1.337-2.97,2.97-2.97h31.843c1.634,0,2.97,1.336,2.97,2.97v0
		C244.644,541.911,243.308,543.247,241.674,543.247z"/>
	<g>
		<path style="opacity:0.64;fill:#5A78EB;" d="M851.814,448.621H699.852c-8.441,0-15.347-6.906-15.347-15.347v-88.979
			c0-8.441,6.906-15.347,15.347-15.347h151.962c8.441,0,15.347,6.906,15.347,15.347v88.979
			C867.161,441.715,860.255,448.621,851.814,448.621z"/>
		<g id="&#x4E0A;&#x5347;&#x677F;">
			<g>
				<defs>
					<path id="XMLID_106_" d="M846.076,443.483H695.897c-7.839,0-14.253-6.414-14.253-14.253v-90.036
						c0-7.839,6.414-14.253,14.253-14.253h150.179c7.839,0,14.253,6.414,14.253,14.253v90.036
						C860.328,437.069,853.915,443.483,846.076,443.483z"/>
				</defs>
				<use xlink:href="#XMLID_106_"  style="overflow:visible;fill:#FFFFFF;"/>
				<clipPath id="XMLID_4_">
					<use xlink:href="#XMLID_106_"  style="overflow:visible;"/>
				</clipPath>
				<rect x="649.394" y="308.381" style="clip-path:url(#XMLID_4_);fill:#E0E6F8;" width="219.65" height="37.48"/>
			</g>
			<circle style="fill:#F06361;" cx="816.311" cy="335.837" r="3.487"/>
			<circle style="fill:#F8BB3F;" cx="830.257" cy="335.837" r="3.487"/>
			<circle style="fill:#2FC843;" cx="844.203" cy="335.837" r="3.487"/>
			<path style="fill:#FA6464;" d="M771.422,354.577c0,0-9.588,27.892-28.764,29.635h20.919v46.196h7.845h7.845v-46.196h20.919
				C781.01,382.469,771.422,354.577,771.422,354.577z"/>
			<path style="fill:#232323;" d="M740.915,359.435h-48.811c-0.276,0-0.5-0.224-0.5-0.5s0.224-0.5,0.5-0.5h48.811
				c0.276,0,0.5,0.224,0.5,0.5S741.191,359.435,740.915,359.435z"/>
			<path style="fill:#232323;" d="M706.05,364.011h-13.946c-0.276,0-0.5-0.224-0.5-0.5s0.224-0.5,0.5-0.5h13.946
				c0.276,0,0.5,0.224,0.5,0.5S706.327,364.011,706.05,364.011z"/>
			<path style="fill:#232323;" d="M740.915,364.011h-30.507c-0.276,0-0.5-0.224-0.5-0.5s0.224-0.5,0.5-0.5h30.507
				c0.276,0,0.5,0.224,0.5,0.5S741.191,364.011,740.915,364.011z"/>
			<path style="fill:#232323;" d="M714.767,368.587h-22.663c-0.276,0-0.5-0.224-0.5-0.5s0.224-0.5,0.5-0.5h22.663
				c0.276,0,0.5,0.224,0.5,0.5S715.043,368.587,714.767,368.587z"/>
			<path style="fill:#232323;" d="M723.483,373.163h-31.379c-0.276,0-0.5-0.224-0.5-0.5s0.224-0.5,0.5-0.5h31.379
				c0.276,0,0.5,0.224,0.5,0.5S723.759,373.163,723.483,373.163z"/>
			<path style="fill:#232323;" d="M697.334,377.739h-5.23c-0.276,0-0.5-0.224-0.5-0.5s0.224-0.5,0.5-0.5h5.23
				c0.276,0,0.5,0.224,0.5,0.5S697.61,377.739,697.334,377.739z"/>
			<path style="fill:#232323;" d="M729.584,368.587h-10.459c-0.276,0-0.5-0.224-0.5-0.5s0.224-0.5,0.5-0.5h10.459
				c0.276,0,0.5,0.224,0.5,0.5S729.86,368.587,729.584,368.587z"/>
			<path style="fill:#232323;" d="M753.118,373.163h-25.277c-0.276,0-0.5-0.224-0.5-0.5s0.224-0.5,0.5-0.5h25.277
				c0.276,0,0.5,0.224,0.5,0.5S753.395,373.163,753.118,373.163z"/>
			<path style="fill:#232323;" d="M731.327,377.739h-31.378c-0.276,0-0.5-0.224-0.5-0.5s0.224-0.5,0.5-0.5h31.378
				c0.276,0,0.5,0.224,0.5,0.5S731.604,377.739,731.327,377.739z"/>
			<circle style="fill:#5A78EB;" cx="827.222" cy="414.735" r="2.631"/>
			<circle style="fill:#5A78EB;" cx="837.453" cy="414.735" r="2.631"/>
			<circle style="fill:#5A78EB;" cx="847.684" cy="414.735" r="2.631"/>
			<circle style="fill:#5A78EB;" cx="827.222" cy="424.089" r="2.631"/>
			<circle style="fill:#5A78EB;" cx="837.453" cy="424.089" r="2.631"/>
			<circle style="fill:#5A78EB;" cx="847.684" cy="424.089" r="2.631"/>
			<circle style="fill:#5A78EB;" cx="827.222" cy="433.443" r="2.631"/>
			<circle style="fill:#5A78EB;" cx="837.453" cy="433.443" r="2.631"/>
			<circle style="fill:#5A78EB;" cx="847.684" cy="433.443" r="2.631"/>
		</g>
		<path style="fill:#232323;" d="M826.018,435.332H691.476c-10.286,0-18.655-8.369-18.655-18.655v-83.801
			c0-10.286,8.369-18.655,18.655-18.655h134.542c10.287,0,18.655,8.369,18.655,18.655v83.801
			C844.673,426.963,836.305,435.332,826.018,435.332z M691.476,316.221c-9.184,0-16.655,7.472-16.655,16.655v83.801
			c0,9.184,7.471,16.655,16.655,16.655h134.542c9.184,0,16.655-7.472,16.655-16.655v-83.801c0-9.184-7.472-16.655-16.655-16.655
			H691.476z"/>
	</g>
</g>
</svg>
