<?xml version="1.0" encoding="iso-8859-1"?>
<!-- Generator: Adobe Illustrator 23.0.2, SVG Export Plug-In . SVG Version: 6.00 Build 0)  -->
<svg version="1.1" id="&#x56FE;&#x5C42;_1" xmlns="http://www.w3.org/2000/svg" xmlns:xlink="http://www.w3.org/1999/xlink" x="0px"
	 y="0px" viewBox="0 0 1000 1000" style="enable-background:new 0 0 1000 1000;" xml:space="preserve">
<g>
	<g>
		<defs>
			<path id="XMLID_157_" d="M412.088,745.193c0,0-463.823-35.512-337.022-398.678C186.716,26.747,429.242,139.575,600.905,199.119
				s454.388,207.762,309.979,446.109c-146.274,241.425-241.718,4.209-335.368-19.958S374.471,634.503,412.088,745.193z"/>
		</defs>
		<use xlink:href="#XMLID_157_"  style="overflow:visible;fill:#FFEBE5;"/>
		<clipPath id="XMLID_2_">
			<use xlink:href="#XMLID_157_"  style="overflow:visible;"/>
		</clipPath>
		<path style="clip-path:url(#XMLID_2_);fill:#FFFFFF;" d="M17.121,569.555l-1.863-0.729c0.338-0.863,34.44-87.415,93.62-175.819
			c34.772-51.946,71.277-94.369,108.498-126.089c46.592-39.707,94.454-62.67,142.256-68.251
			c59.6-6.958,109.87-11.399,150.263-14.969c104.864-9.265,157.5-13.914,200.329-44.084l1.152,1.635
			c-43.27,30.479-96.084,35.146-201.306,44.441c-40.38,3.568-90.636,8.008-150.206,14.963
			C252.438,213.196,164.986,312.784,110.54,394.119C51.48,482.345,17.458,568.692,17.121,569.555z"/>
		<path style="clip-path:url(#XMLID_2_);fill:#FFFFFF;" d="M15.611,678.854l-1.875-0.697c0.38-1.023,38.721-103.429,99.156-198.416
			c35.524-55.834,71.627-98.231,107.305-126.016c44.746-34.845,88.962-46.701,131.423-35.241
			c99.31,26.807,196.666,3.915,260.848-20.008c74.267-27.683,127.214-65.227,136.881-81.687l1.725,1.014
			c-9.818,16.716-63.205,54.703-137.907,82.547c-64.456,24.024-162.245,47.008-262.067,20.065
			c-41.819-11.29-85.449,0.449-129.672,34.888c-35.498,27.643-71.446,69.871-106.847,125.511
			C54.257,575.625,15.99,677.832,15.611,678.854z"/>
		<path style="clip-path:url(#XMLID_2_);fill:#FFFFFF;" d="M95.167,688.404l-0.313-1.975c0.731-0.116,73.967-11.927,150.301-45.067
			c70.32-30.529,157.734-85.925,174.84-176.457c5.091-26.947,20.504-50.037,45.81-68.63c22.71-16.687,53.349-29.761,91.063-38.861
			c69.148-16.685,160.498-19.441,250.622-7.562c83.581,11.016,146.589,32.137,164.437,55.12l-1.58,1.227
			c-17.271-22.24-81.298-43.58-163.117-54.364c-89.893-11.85-180.975-9.105-249.892,7.523
			c-79.078,19.081-125.891,55.706-135.378,105.918c-7.631,40.39-29.595,77.262-65.281,109.592
			c-28.498,25.817-65.765,48.813-110.765,68.345C169.351,676.447,95.899,688.289,95.167,688.404z"/>
		<path style="clip-path:url(#XMLID_2_);fill:#FFFFFF;" d="M668.082,821.174l-1.977-0.305c0.105-0.685,10.851-69.306,38.161-143.875
			c16.05-43.821,34.598-81.103,55.129-110.809c25.717-37.207,54.645-62.581,85.981-75.417
			c53.351-21.854,114.209-7.734,180.888,41.966l-1.195,1.604c-66.076-49.252-126.281-63.286-178.934-41.719
			c-70.219,28.763-114.886,116.514-139.991,185.063C678.901,752.066,668.188,820.491,668.082,821.174z"/>
	</g>
	<path style="fill:#30AD7F;" d="M335.562,752.015c0,0-152.65-215.001-142.418-267.208c0,0,10.232-20.375,23.874,9.183
		s142.35,258.025,142.35,258.025H335.562z"/>
	<path style="fill:#38B385;" d="M293.464,752.015c0,0,20.185-288.677,132.732-368.277c0,0,57.979-33.032,7.958,33.494
		c0,0-106.444,158.382-105.517,337.549L293.464,752.015z"/>
	<path style="fill:#FFFFFF;" d="M280.559,634.571c-0.268,0-0.534-0.106-0.731-0.318c-42.977-46.109-72.008-134.896-72.296-135.787
		c-0.17-0.525,0.118-1.089,0.644-1.259c0.529-0.172,1.089,0.119,1.259,0.644c0.287,0.888,29.185,89.257,71.856,135.039
		c0.377,0.404,0.354,1.036-0.05,1.413C281.048,634.482,280.803,634.571,280.559,634.571z"/>
	<path style="fill:#ADCD55;" d="M301.785,668.292c0,0-83.252-151.363-201.484-183.486S202.93,734.545,296.374,758.836l54.274-6.821
		C350.648,752.015,323.648,693.669,301.785,668.292z"/>
	<path style="fill:#ADCD55;" d="M517.144,368.123c0,0-185.646-14.042-204.233,383.891h79.38
		C392.29,752.015,542.533,528.441,517.144,368.123z"/>
	<path style="fill:#1D455D;" d="M413.426,752.015c0,0,93.009-141.809,94.623-226.572c0,0,10.115-22.15-34.863,9.853
		c-78.778,56.051-80.895,216.72-80.895,216.72H413.426z"/>
	<path style="fill:#30AD7F;" d="M426.196,752.015l90.947,6.821c0,0,9.853-72.72-13.642-96.215
		c-23.495-23.495,19.258-99.284,15.692-125.053c0,0-2.808-23.667-22.513,5.219S402.702,699.682,426.196,752.015z"/>
	<path style="fill:#5A6C1C;" d="M285.229,720.084c-0.342,0-0.675-0.176-0.862-0.491c-58.351-98.748-180.453-202.662-181.68-203.7
		c-0.421-0.357-0.474-0.988-0.117-1.41c0.357-0.421,0.985-0.473,1.41-0.117c1.229,1.041,123.585,105.168,182.109,204.21
		c0.28,0.476,0.123,1.089-0.353,1.37C285.576,720.039,285.401,720.084,285.229,720.084z"/>
	<path style="fill:#5A6C1C;" d="M350.646,753.015c-0.505,0-0.939-0.381-0.993-0.895c-4.32-40.753,19.353-114.155,70.361-218.17
		c37.952-77.391,77.686-143.684,78.082-144.344c0.284-0.474,0.897-0.627,1.372-0.343c0.474,0.285,0.627,0.899,0.343,1.372
		c-0.396,0.66-40.092,66.891-78.007,144.207c-50.121,102.204-74.383,177.265-70.163,217.066c0.059,0.549-0.34,1.042-0.889,1.1
		C350.717,753.013,350.682,753.015,350.646,753.015z"/>
	<path style="fill:#FFFFFF;" d="M463.08,755.78c-0.365,0-0.717-0.2-0.893-0.548c-17.132-33.76-3.906-85.223,10.205-122.449
		c15.243-40.214,34.764-72.934,34.959-73.26c0.284-0.474,0.898-0.627,1.372-0.343s0.627,0.898,0.343,1.372
		c-0.194,0.324-19.636,32.914-34.814,72.966c-13.962,36.842-27.079,87.706-10.281,120.81c0.25,0.492,0.054,1.094-0.439,1.344
		C463.387,755.746,463.232,755.78,463.08,755.78z"/>
	<path style="fill:#FFFFFF;" d="M426.024,750.388c-0.449,0-0.858-0.305-0.97-0.761c-14.079-57.255,4.099-111.211,21.827-146.394
		c19.188-38.08,42.015-62.989,42.243-63.236c0.375-0.406,1.008-0.43,1.413-0.056s0.431,1.007,0.056,1.413
		c-0.227,0.245-22.891,24.985-41.951,62.83c-17.563,34.868-35.574,88.323-21.646,144.964c0.132,0.537-0.195,1.078-0.731,1.21
		C426.184,750.379,426.104,750.388,426.024,750.388z"/>
	<path style="fill:#5A6C1C;" d="M437.126,503.134c-0.188,0-0.378-0.053-0.547-0.163c-19.678-12.89-13.296-68.087-13.015-70.431
		c0.066-0.547,0.563-0.944,1.112-0.874c0.548,0.066,0.939,0.563,0.874,1.112c-0.067,0.562-6.521,56.306,12.124,68.519
		c0.462,0.303,0.591,0.923,0.289,1.385C437.771,502.975,437.452,503.134,437.126,503.134z"/>
	<path style="fill:#5A6C1C;" d="M403.494,572.067c-0.372,0-0.729-0.208-0.901-0.564c-0.24-0.497-0.032-1.096,0.465-1.336
		c0.347-0.167,34.986-17.248,66.665-60.474c0.327-0.445,0.953-0.543,1.397-0.216c0.445,0.326,0.542,0.952,0.216,1.397
		c-31.992,43.654-67.058,60.924-67.407,61.093C403.788,572.035,403.64,572.067,403.494,572.067z"/>
	<path style="fill:#5A6C1C;" d="M155.71,572.306c-14.657,0-45.022-2.212-53.283-19.914c-0.233-0.5-0.018-1.096,0.483-1.329
		c0.501-0.232,1.096-0.016,1.329,0.483c10.201,21.858,58.791,18.559,59.28,18.524c0.563-0.043,1.03,0.374,1.07,0.924
		c0.041,0.551-0.373,1.03-0.924,1.07C163.186,572.1,160.176,572.306,155.71,572.306z"/>
	<path style="fill:#5A6C1C;" d="M187.729,596.67c-0.242,0-0.484-0.087-0.677-0.264c-0.406-0.374-0.433-1.006-0.06-1.413
		c0.176-0.191,17.455-19.432,6.385-42.593c-0.238-0.499-0.027-1.096,0.471-1.334c0.499-0.239,1.096-0.027,1.334,0.471
		c11.664,24.402-6.532,44.608-6.717,44.81C188.269,596.562,187.999,596.67,187.729,596.67z"/>
	<path style="fill:#5A6C1C;" d="M227.246,661.423c-22.461,0-47.382-16.104-48.671-16.948c-0.462-0.303-0.591-0.922-0.289-1.385
		c0.304-0.461,0.923-0.591,1.385-0.289c0.381,0.25,38.366,24.795,61.881,13.704c0.499-0.237,1.096-0.021,1.331,0.478
		c0.235,0.5,0.021,1.096-0.478,1.331C237.72,660.523,232.55,661.423,227.246,661.423z"/>
	<path style="fill:#26205C;" d="M918.816,758.836H44.584c-3.752,0-6.821-3.069-6.821-6.821l0,0c0-3.752,3.069-6.821,6.821-6.821
		h874.232c3.752,0,6.821,3.069,6.821,6.821l0,0C925.637,755.766,922.567,758.836,918.816,758.836z"/>
	<g>
		<g>
			<polygon style="fill:#FFB7B7;" points="270.586,707.24 272.316,692.439 308.453,692.439 307.107,708.777 			"/>
			<g>
				<defs>
					<path id="XMLID_150_" d="M269.805,706.441l-1.333,9.064c0,0-28.448,1.538-49.208,29.217h89.189v-38.059L269.805,706.441z"/>
				</defs>
				<use xlink:href="#XMLID_150_"  style="overflow:visible;fill:#26205C;"/>
				<clipPath id="XMLID_3_">
					<use xlink:href="#XMLID_150_"  style="overflow:visible;"/>
				</clipPath>
				<rect x="188.124" y="740.109" style="clip-path:url(#XMLID_3_);fill:#FFFFFF;" width="161.848" height="2.307"/>
			</g>
		</g>
		<g>
			<polygon style="fill:#FFB7B7;" points="404.37,707.24 402.64,692.439 366.503,692.439 367.848,708.777 			"/>
			<g>
				<defs>
					<path id="SVGID_83_" d="M405.151,706.441l1.333,9.064c0,0,28.448,1.538,49.208,29.217h-89.189v-38.059L405.151,706.441z"/>
				</defs>
				<use xlink:href="#SVGID_83_"  style="overflow:visible;fill:#26205C;"/>
				<clipPath id="SVGID_1_">
					<use xlink:href="#SVGID_83_"  style="overflow:visible;"/>
				</clipPath>
				
					<rect x="324.984" y="740.109" transform="matrix(-1 -4.492197e-11 4.492197e-11 -1 811.8154 1482.5247)" style="clip-path:url(#SVGID_1_);fill:#FFFFFF;" width="161.848" height="2.307"/>
			</g>
		</g>
		<g>
			<g>
				<defs>
					<polygon id="SVGID_2_" points="287.693,460.042 261.167,698.974 311.016,698.974 326.778,501.758 333.65,501.758 
						361.505,698.974 411.098,698.974 370.219,457.158 					"/>
				</defs>
				<clipPath id="SVGID_3_">
					<use xlink:href="#SVGID_2_"  style="overflow:visible;"/>
				</clipPath>
			</g>
			<g>
				<defs>
					<polygon id="SVGID_4_" points="287.693,460.042 261.167,698.974 311.016,698.974 326.778,501.758 333.65,501.758 
						361.505,698.974 411.098,698.974 370.219,457.158 					"/>
				</defs>
				<use xlink:href="#SVGID_4_"  style="overflow:visible;fill:#26205C;"/>
				<clipPath id="SVGID_5_">
					<use xlink:href="#SVGID_4_"  style="overflow:visible;"/>
				</clipPath>
				<path style="clip-path:url(#SVGID_5_);fill:#26205C;" d="M270.586,462.598c0,0,22.825,14.166,114.85,3.885v-9.325H273.941
					L270.586,462.598z"/>
			</g>
			<g>
				<defs>
					<polygon id="SVGID_6_" points="287.693,460.042 261.167,698.974 311.016,698.974 326.778,501.758 333.65,501.758 
						361.505,698.974 411.098,698.974 370.219,457.158 					"/>
				</defs>
				<clipPath id="SVGID_7_">
					<use xlink:href="#SVGID_6_"  style="overflow:visible;"/>
				</clipPath>
			</g>
		</g>
		<g>
			<g>
				<defs>
					<path id="XMLID_9_" d="M388.645,351.548c-0.039-0.136-0.079-0.271-0.119-0.405c-2.382-8.034-9.767-13.539-18.147-13.539
						h-38.989h-2.755h-37.423c-8.023,0-15.444,4.477-18.979,11.679c-0.367,0.748-0.62,1.396-0.706,1.887
						c-0.344,1.949-6.322,16.851-11.091,28.561c-5.089,12.495-1.22,27.016,9.712,34.922c4.287,3.1,9.344,5.001,15.029,4.067
						l2.517,43.826c0,0,28.41,1.73,42.347,1.73c13.937,0,41.076-1.811,41.076-1.811l3.734-43.744
						c5.685,0.934,10.742-0.967,15.029-4.067c10.936-7.909,14.839-22.414,9.813-34.939
						C395.039,368.117,389.194,353.442,388.645,351.548z"/>
				</defs>
				<clipPath id="XMLID_4_">
					<use xlink:href="#XMLID_9_"  style="overflow:visible;"/>
				</clipPath>
			</g>
			<g>
				<defs>
					<path id="XMLID_8_" d="M388.645,351.548c-0.039-0.136-0.079-0.271-0.119-0.405c-2.382-8.034-9.767-13.539-18.147-13.539
						h-38.989h-2.755h-37.423c-8.023,0-15.444,4.477-18.979,11.679c-0.367,0.748-0.62,1.396-0.706,1.887
						c-0.344,1.949-6.322,16.851-11.091,28.561c-5.089,12.495-1.22,27.016,9.712,34.922c4.287,3.1,9.344,5.001,15.029,4.067
						l2.517,43.826c0,0,28.41,1.73,42.347,1.73c13.937,0,41.076-1.811,41.076-1.811l3.734-43.744
						c5.685,0.934,10.742-0.967,15.029-4.067c10.936-7.909,14.839-22.414,9.813-34.939
						C395.039,368.117,389.194,353.442,388.645,351.548z"/>
				</defs>
				<use xlink:href="#XMLID_8_"  style="overflow:visible;fill:#5A78EC;"/>
				<clipPath id="XMLID_5_">
					<use xlink:href="#XMLID_8_"  style="overflow:visible;"/>
				</clipPath>
				<polygon style="clip-path:url(#XMLID_5_);fill:#4C6AC8;" points="385.321,426.079 283.813,422.282 285.177,418.07 
					374.246,418.231 				"/>
				<polygon style="clip-path:url(#XMLID_5_);fill:#4C6AC8;" points="344.65,389.121 286.345,387.371 292.673,369.123 
					292.293,383.932 				"/>
			</g>
			<g>
				<defs>
					<path id="XMLID_7_" d="M388.645,351.548c-0.039-0.136-0.079-0.271-0.119-0.405c-2.382-8.034-9.767-13.539-18.147-13.539
						h-38.989h-2.755h-37.423c-8.023,0-15.444,4.477-18.979,11.679c-0.367,0.748-0.62,1.396-0.706,1.887
						c-0.344,1.949-6.322,16.851-11.091,28.561c-5.089,12.495-1.22,27.016,9.712,34.922c4.287,3.1,9.344,5.001,15.029,4.067
						l2.517,43.826c0,0,28.41,1.73,42.347,1.73c13.937,0,41.076-1.811,41.076-1.811l3.734-43.744
						c5.685,0.934,10.742-0.967,15.029-4.067c10.936-7.909,14.839-22.414,9.813-34.939
						C395.039,368.117,389.194,353.442,388.645,351.548z"/>
				</defs>
				<clipPath id="XMLID_6_">
					<use xlink:href="#XMLID_7_"  style="overflow:visible;"/>
				</clipPath>
			</g>
		</g>
		<path style="fill:#FF9595;" d="M345.743,389.695c0,0,13.84-6.207,25.373,1.666c0,0-0.897,8.394-12.43,14.16
			C358.686,405.521,351.798,397.48,345.743,389.695z"/>
		<circle style="fill:#FFB7B7;" cx="329.148" cy="304.606" r="20.3"/>
		<path style="fill:#26205C;" d="M309.023,307.234c0,0,7.321-13.456,11.934-6.921c4.613,6.535,11.918,0.889,14.993-2.054
			s8.447,5.514,12.292,8.974c3.844,3.46,5.777-16.915-4.219-24.22c-9.995-7.304-11.106-5.382-15.548-2.691
			c-4.443,2.691-15.181-2.887-18.257,5.955S303.257,296.854,309.023,307.234z"/>
		<path style="fill:#232323;" d="M342.794,390.121c-0.01,0-0.021,0-0.031,0l-57.809-1.792l6.774-19.533
			c0.181-0.522,0.751-0.797,1.272-0.617c0.522,0.181,0.798,0.75,0.617,1.272l-5.883,16.962l55.089,1.708
			c0.552,0.017,0.986,0.479,0.969,1.03C343.776,389.693,343.332,390.121,342.794,390.121z"/>
		<path style="fill:#232323;" d="M371.116,419.232h-37.942c-0.552,0-1-0.448-1-1s0.448-1,1-1h37.942c0.552,0,1,0.448,1,1
			S371.669,419.232,371.116,419.232z"/>
		<path style="fill:#232323;" d="M287.609,419.232c-0.479,0-0.902-0.344-0.985-0.832c-0.093-0.544,0.273-1.061,0.818-1.154
			l68.346-11.645c0.544-0.096,1.061,0.273,1.154,0.818s-0.273,1.061-0.818,1.154l-68.346,11.645
			C287.722,419.227,287.665,419.232,287.609,419.232z"/>
		<path style="fill:#FFFFFF;" d="M266.517,693.439c-0.035,0-0.07-0.002-0.106-0.005c-0.549-0.058-0.948-0.55-0.89-1.099
			l22.233-211.683c0.037-0.349,0.254-0.654,0.572-0.802c10.725-4.997,15.989-12.854,16.041-12.933
			c0.304-0.461,0.924-0.588,1.385-0.286c0.461,0.303,0.589,0.922,0.287,1.384c-0.22,0.335-5.438,8.153-16.354,13.404L267.51,692.544
			C267.456,693.057,267.023,693.439,266.517,693.439z"/>
		<path style="fill:#FFFFFF;" d="M405.57,693.439c-0.479,0-0.902-0.346-0.985-0.834l-35.518-211.168
			c-10.941-5.251-16.17-13.086-16.39-13.421c-0.303-0.461-0.174-1.081,0.287-1.384c0.463-0.303,1.081-0.175,1.385,0.286
			c0.052,0.079,5.315,7.936,16.041,12.933c0.298,0.139,0.509,0.416,0.564,0.74l35.605,211.683c0.091,0.545-0.276,1.061-0.82,1.152
			C405.681,693.435,405.625,693.439,405.57,693.439z"/>
	</g>
	<g>
		<g>
			<defs>
				<path id="XMLID_151_" d="M802.416,745.193H543.016c-12.137,0-22.068-9.931-22.068-22.068V345.066
					c0-12.137,9.931-22.068,22.068-22.068h259.401c12.137,0,22.068,9.931,22.068,22.068v378.059
					C824.484,735.263,814.554,745.193,802.416,745.193z"/>
			</defs>
			<use xlink:href="#XMLID_151_"  style="overflow:visible;fill:#5A78EC;"/>
			<clipPath id="XMLID_13_">
				<use xlink:href="#XMLID_151_"  style="overflow:visible;"/>
			</clipPath>
			<rect x="439.8" y="268.229" style="clip-path:url(#XMLID_13_);fill:#FFFFFF;" width="388.853" height="206.147"/>
			
				<circle style="clip-path:url(#XMLID_13_);fill:#FF6666;stroke:#FF6666;stroke-miterlimit:10;" cx="523.513" cy="325.637" r="149.203"/>
			<g style="clip-path:url(#XMLID_13_);">
				<path style="fill:#FF6666;" d="M671.716,271.24v201.137H477.979V271.24H671.716 M673.716,269.24H475.979v205.137h197.737V269.24
					L673.716,269.24z"/>
			</g>
		</g>
		<path style="fill:#FFD840;" d="M796.316,353.021H687.053c-1.116,0-2.021-0.905-2.021-2.021v-11.495
			c0-1.116,0.905-2.021,2.021-2.021h109.263c1.116,0,2.021,0.905,2.021,2.021V351C798.337,352.116,797.432,353.021,796.316,353.021z
			"/>
		<path style="fill:#FFEBE5;" d="M785.263,378.789h-98.147c-1.151,0-2.084-0.933-2.084-2.084v-10.611
			c0-1.151,0.933-2.084,2.084-2.084h98.147c1.151,0,2.084,0.933,2.084,2.084v10.611
			C787.347,377.856,786.414,378.789,785.263,378.789z"/>
		<rect x="685.032" y="395.842" style="fill:#FFEBE5;" width="65.179" height="65.179"/>
		<path style="fill:#FFFFFF;" d="M761.768,523.168H547.663c-1.779,0-3.221-1.442-3.221-3.221v-18.568
			c0-1.779,1.442-3.221,3.221-3.221h214.105c1.779,0,3.221,1.442,3.221,3.221v18.568
			C764.99,521.726,763.547,523.168,761.768,523.168z"/>
		<path style="fill:#FFFFFF;" d="M677.895,565.686H547.663c-1.779,0-3.221-1.442-3.221-3.221v-18.568
			c0-1.779,1.442-3.221,3.221-3.221h130.232c1.779,0,3.221,1.442,3.221,3.221v18.568
			C681.116,564.244,679.674,565.686,677.895,565.686z"/>
		<g>
			<defs>
				<circle id="SVGID_91_" cx="618.716" cy="652.508" r="73.516"/>
			</defs>
			<clipPath id="SVGID_8_">
				<use xlink:href="#SVGID_91_"  style="overflow:visible;"/>
			</clipPath>
			<rect x="618.716" y="533.625" style="clip-path:url(#SVGID_8_);fill:#FFFFFF;" width="98.905" height="200.996"/>
			<use xlink:href="#SVGID_91_"  style="overflow:visible;fill:none;stroke:#FFFFFF;stroke-width:2;stroke-miterlimit:10;"/>
		</g>
		<path style="fill:#232323;" d="M535.132,692.796c-0.553,0-1-0.447-1-1V330.533c0-15.598,12.69-28.288,28.288-28.288h249.177
			c15.598,0,28.288,12.69,28.288,28.288v133.742c0,0.553-0.447,1-1,1s-1-0.447-1-1V330.533c0-14.495-11.793-26.288-26.288-26.288
			H562.42c-14.495,0-26.288,11.793-26.288,26.288v361.263C536.132,692.349,535.685,692.796,535.132,692.796z"/>
	</g>
	<path style="fill:#FF6666;" d="M289.032,343.547L271.6,319.449H152.401c-6.302,0-11.411-5.109-11.411-11.411v-58.679
		c0-6.302,5.109-11.411,11.411-11.411H277.62c6.302,0,11.411,5.109,11.411,11.411V343.547z"/>
	<path style="fill:#FFFFFF;" d="M207.754,304.962L207.754,304.962c-1.452,1.452-3.827,1.452-5.279,0l-25.447-25.447
		c-1.452-1.452-1.452-3.827,0-5.279l0,0c1.452-1.452,3.827-1.452,5.279,0l25.447,25.447
		C209.206,301.134,209.206,303.51,207.754,304.962z"/>
	<path style="fill:#FFFFFF;" d="M256.52,250.867L256.52,250.867c1.452,1.452,1.452,3.827,0,5.279l-48.815,48.815
		c-1.452,1.452-3.827,1.452-5.279,0h0c-1.452-1.452-1.452-3.827,0-5.279l48.815-48.815
		C252.693,249.416,255.068,249.416,256.52,250.867z"/>
	<g>
		<defs>
			<path id="XMLID_156_" d="M629.603,254.368H434.65c-6.392,0-11.621-5.229-11.621-11.621V117.442
				c0-6.392,5.229-11.621,11.621-11.621h194.954c6.392,0,11.621,5.229,11.621,11.621v125.305
				C641.224,249.139,635.995,254.368,629.603,254.368z"/>
		</defs>
		<use xlink:href="#XMLID_156_"  style="overflow:visible;fill:#EAEAEA;"/>
		<clipPath id="XMLID_14_">
			<use xlink:href="#XMLID_156_"  style="overflow:visible;"/>
		</clipPath>
		<rect x="400.454" y="81.063" style="clip-path:url(#XMLID_14_);fill:#FFD840;" width="254.412" height="48"/>
	</g>
	<g>
		<defs>
			<path id="XMLID_155_" d="M622,261.442H427.046c-6.392,0-11.621-5.229-11.621-11.621V124.516c0-6.392,5.229-11.621,11.621-11.621
				H622c6.392,0,11.621,5.229,11.621,11.621v125.305C633.621,256.213,628.392,261.442,622,261.442z"/>
		</defs>
		<use xlink:href="#XMLID_155_"  style="overflow:visible;fill:#F4F4F4;"/>
		<clipPath id="XMLID_15_">
			<use xlink:href="#XMLID_155_"  style="overflow:visible;"/>
		</clipPath>
		
			<rect x="392.851" y="88.137" style="clip-path:url(#XMLID_15_);fill:#FF6666;stroke:#FF6666;stroke-miterlimit:10;" width="254.412" height="48"/>
	</g>
	<g>
		<defs>
			<path id="XMLID_153_" d="M610.884,267.758H415.931c-6.392,0-11.621-5.229-11.621-11.621V130.832
				c0-6.392,5.229-11.621,11.621-11.621h194.954c6.392,0,11.621,5.229,11.621,11.621v125.305
				C622.505,262.528,617.276,267.758,610.884,267.758z"/>
		</defs>
		<use xlink:href="#XMLID_153_"  style="overflow:visible;fill:#FFFFFF;"/>
		<clipPath id="XMLID_16_">
			<use xlink:href="#XMLID_153_"  style="overflow:visible;"/>
		</clipPath>
		<rect x="381.735" y="94.453" style="clip-path:url(#XMLID_16_);fill:#5A78EC;" width="254.412" height="48"/>
	</g>
	<path style="fill:#5A78EC;" d="M423.029,242.232c-0.019,0-0.037,0-0.056-0.001c-0.827-0.03-1.475-0.726-1.444-1.554
		c0.053-1.467,1.503-36.11,18.903-51.951c6.064-5.522,13.374-8.076,21.714-7.596c11.161,0.643,17.257,8.244,23.711,16.293
		c6.402,7.983,13.023,16.239,25.324,18.207c10.521,1.683,15.515-9.79,21.29-23.078c7.104-16.341,15.153-34.862,36.029-35.464
		c14.44-0.431,26.808,9.871,36.641,30.579c0.354,0.748,0.036,1.644-0.712,1.999c-0.75,0.354-1.644,0.036-1.999-0.712
		c-9.275-19.535-20.675-29.22-33.844-28.868c-18.97,0.547-26.617,18.14-33.363,33.662c-6.013,13.832-11.688,26.889-24.517,24.845
		c-13.443-2.151-20.746-11.259-27.189-19.293c-6.286-7.839-11.716-14.609-21.543-15.176c-7.514-0.432-14.077,1.863-19.522,6.82
		c-16.477,14.999-17.912,49.495-17.925,49.842C424.498,241.596,423.833,242.232,423.029,242.232z"/>
	<path style="fill:#5A78EC;" d="M457.537,241.232c-0.276,0-0.5-0.224-0.5-0.5v-56.849c0-0.276,0.224-0.5,0.5-0.5s0.5,0.224,0.5,0.5
		v56.849C458.037,241.009,457.813,241.232,457.537,241.232z"/>
	<path style="fill:#5A78EC;" d="M513.407,241.232c-0.276,0-0.5-0.224-0.5-0.5v-23.437c0-0.276,0.224-0.5,0.5-0.5s0.5,0.224,0.5,0.5
		v23.437C513.907,241.009,513.684,241.232,513.407,241.232z"/>
	<path style="fill:#5A78EC;" d="M568.442,241.232c-0.276,0-0.5-0.224-0.5-0.5v-82.145c0-0.276,0.224-0.5,0.5-0.5s0.5,0.224,0.5,0.5
		v82.145C568.942,241.009,568.719,241.232,568.442,241.232z"/>
	<circle style="fill:#FF6666;" cx="457.537" cy="182.621" r="4.547"/>
	<circle style="fill:#FF6666;" cx="513.407" cy="216.221" r="4.547"/>
	<circle style="fill:#FF6666;" cx="568.442" cy="158.577" r="4.547"/>
	<g>
		<circle style="fill:#FF6666;stroke:#FF6666;stroke-miterlimit:10;" cx="660.905" cy="651.221" r="6.189"/>
		<circle style="fill:#FF6666;stroke:#FF6666;stroke-miterlimit:10;" cx="660.905" cy="678.505" r="6.189"/>
		<circle style="fill:#FF6666;stroke:#FF6666;stroke-miterlimit:10;" cx="689.263" cy="678.505" r="6.189"/>
		<circle style="fill:#FF6666;stroke:#FF6666;stroke-miterlimit:10;" cx="717.621" cy="678.505" r="6.189"/>
		<circle style="fill:#FF6666;stroke:#FF6666;stroke-miterlimit:10;" cx="689.263" cy="705.789" r="6.189"/>
		<circle style="fill:#FF6666;stroke:#FF6666;stroke-miterlimit:10;" cx="717.621" cy="705.789" r="6.189"/>
		<circle style="fill:#FF6666;stroke:#FF6666;stroke-miterlimit:10;" cx="660.905" cy="705.789" r="6.189"/>
		<circle style="fill:#FF6666;stroke:#FF6666;stroke-miterlimit:10;" cx="689.263" cy="651.221" r="6.189"/>
		<circle style="fill:#FF6666;stroke:#FF6666;stroke-miterlimit:10;" cx="717.621" cy="651.221" r="6.189"/>
		<path style="fill:#FFFFFF;" d="M887.277,744.722H743.06c-5.689,0-10.344-4.655-10.344-10.344V553.131
			c0-5.689,4.655-10.344,10.344-10.344h144.217c5.689,0,10.344,4.655,10.344,10.344v181.247
			C897.621,740.067,892.966,744.722,887.277,744.722z"/>
		<path style="fill:#FF6666;stroke:#FF6666;stroke-miterlimit:10;" d="M809.748,733.105h-59.422c-2.994,0-5.421-2.427-5.421-5.421
			V560.348c0-2.994,2.427-5.421,5.421-5.421h59.422c2.994,0,5.421,2.427,5.421,5.421v167.337
			C815.168,730.678,812.742,733.105,809.748,733.105z"/>
		<path style="fill:#FFD840;" d="M875.748,597.126h-35.864c-2.994,0-5.421-2.427-5.421-5.421v-31.357
			c0-2.994,2.427-5.421,5.421-5.421h35.864c2.994,0,5.421,2.427,5.421,5.421v31.357
			C881.168,594.699,878.742,597.126,875.748,597.126z"/>
		<path style="fill:#232323;" d="M879.053,613.221h-44.59c-0.553,0-1-0.447-1-1s0.447-1,1-1h44.59c0.553,0,1,0.447,1,1
			S879.605,613.221,879.053,613.221z"/>
		<path style="fill:#232323;" d="M854.168,624.519h-19.705c-0.553,0-1-0.447-1-1s0.447-1,1-1h19.705c0.553,0,1,0.447,1,1
			S854.721,624.519,854.168,624.519z"/>
		<path style="fill:#232323;" d="M875.643,624.519h-11.369c-0.553,0-1-0.447-1-1s0.447-1,1-1h11.369c0.553,0,1,0.447,1,1
			S876.195,624.519,875.643,624.519z"/>
		<path style="fill:#232323;" d="M886.505,635.815h-52.042c-0.553,0-1-0.447-1-1s0.447-1,1-1h52.042c0.553,0,1,0.447,1,1
			S887.058,635.815,886.505,635.815z"/>
		<path style="fill:#232323;" d="M860.484,647.112h-26.021c-0.553,0-1-0.447-1-1s0.447-1,1-1h26.021c0.553,0,1,0.447,1,1
			S861.037,647.112,860.484,647.112z"/>
		<path style="fill:#232323;" d="M843.306,658.409h-8.843c-0.553,0-1-0.447-1-1s0.447-1,1-1h8.843c0.553,0,1,0.447,1,1
			S843.858,658.409,843.306,658.409z"/>
		<path style="fill:#232323;" d="M875.643,658.409h-25.264c-0.553,0-1-0.447-1-1s0.447-1,1-1h25.264c0.553,0,1,0.447,1,1
			S876.195,658.409,875.643,658.409z"/>
		<circle style="fill:#FF6666;" cx="896.634" cy="541.62" r="18.418"/>
		<path style="fill:#232323;" d="M893.358,742.809H753.61c-7.47,0-13.547-6.077-13.547-13.547V546.643
			c0-7.47,6.077-13.547,13.547-13.547h139.748c7.47,0,13.547,6.077,13.547,13.547v182.619
			C906.905,736.731,900.828,742.809,893.358,742.809z M753.61,535.096c-6.367,0-11.547,5.18-11.547,11.547v182.619
			c0,6.367,5.18,11.547,11.547,11.547h139.748c6.367,0,11.547-5.18,11.547-11.547V546.643c0-6.367-5.18-11.547-11.547-11.547H753.61
			z"/>
	</g>
	<path style="fill:none;stroke:#232323;stroke-width:2;stroke-linecap:round;stroke-miterlimit:10;" d="M263.384,310.213H146.216
		c-6.268,0-11.396-5.128-11.396-11.396V243.28c0-6.268,5.128-11.396,11.396-11.396h117.168c6.268,0,11.396,5.128,11.396,11.396
		v55.537C274.779,305.085,269.651,310.213,263.384,310.213z"/>
	<path style="fill:#232323;" d="M535.132,362.231h-96.416c-0.553,0-1-0.447-1-1v-87.916c0-0.553,0.447-1,1-1s1,0.447,1,1v86.916
		h95.416c0.553,0,1,0.447,1,1S535.685,362.231,535.132,362.231z"/>
	<circle style="fill:#FF6666;" cx="438.716" cy="267.884" r="10.737"/>
	<circle style="fill:none;stroke:#5A78EC;stroke-width:6;stroke-miterlimit:10;" cx="236.633" cy="151.965" r="21.589"/>
	<path style="fill:none;stroke:#5A78EC;stroke-width:6;stroke-miterlimit:10;" d="M102.559,415.342l-17.334-4.203
		c-6.927-1.68-9.438-10.228-4.52-15.387l12.307-12.91c4.918-5.159,13.577-3.06,15.585,3.779l5.027,17.113
		C115.633,410.573,109.486,417.021,102.559,415.342z"/>
	<g>
		<path style="fill:#5A78EC;" d="M906.762,455.735v9.321h-7.703v-9.321h-9.321v-7.702h9.321v-9.322h7.703v9.322h9.321v7.702H906.762
			z"/>
	</g>
</g>
</svg>
